# xmcd
#
# Track frame offsets:
#	150
#	25275
#	41481
#	56425
#	65737
#	72055
#	83013
#	98804
#	112493
#	128999
#	145671
#	161092
#	189640
#	204099
#	217897
#	236295
#	254483
#	270721
#
# Disc length: 3956 seconds
#
# Revision: 0
# Processed by: cddbd v1.5.2PL0 Copyright (c) Steve Scherf et al.
# Submitted via: audiograbber 1.83.01
#
DISCID=040f7212
DTITLE=Julio Iglesias - en el Olympia
DYEAR=1976
DGENRE=Schlager
TTITLE0=Introduccion Vivencias
TTITLE1=Por El Amor De Una Mujer
TTITLE2=Dicen
TTITLE3=Solamente Una Vez
TTITLE4=Corazon, Corazon
TTITLE5=Maria Bonita
TTITLE6=El Amor
TTITLE7=A Veces Tu, A Veces Yo
TTITLE8=Abrazame
TTITLE9=Un Canto A Galicia
TTITLE10=Manuela
TTITLE11=Asi Nacemos
TTITLE12=Feelings
TTITLE13=Quiero
TTITLE14=Candilejas
TTITLE15=Quien
TTITLE16=La Mer
TTITLE17=Minueto
EXTD=
EXTT0=
EXTT1=
EXTT2=
EXTT3=
EXTT4=
EXTT5=
EXTT6=
EXTT7=
EXTT8=
EXTT9=
EXTT10=
EXTT11=
EXTT12=
EXTT13=
EXTT14=
EXTT15=
EXTT16=
EXTT17=
PLAYORDER=
